<svg xmlns="http://www.w3.org/2000/svg" width="512" height="512" viewBox="0 0 512 512" fill="none">
  <defs>
    <linearGradient id="bg" x1="58" y1="36" x2="464" y2="470" gradientUnits="userSpaceOnUse">
      <stop stop-color="#081634"/>
      <stop offset="1" stop-color="#143E77"/>
    </linearGradient>
    <linearGradient id="tile" x1="108" y1="108" x2="250" y2="390" gradientUnits="userSpaceOnUse">
      <stop stop-color="#63D6FF"/>
      <stop offset="1" stop-color="#1E58D7"/>
    </linearGradient>
    <linearGradient id="arch" x1="118" y1="90" x2="444" y2="278" gradientUnits="userSpaceOnUse">
      <stop stop-color="#66D0FF"/>
      <stop offset="1" stop-color="#76FFD6"/>
    </linearGradient>
    <linearGradient id="ribbon" x1="130" y1="380" x2="392" y2="220" gradientUnits="userSpaceOnUse">
      <stop stop-color="#15D7BF"/>
      <stop offset="1" stop-color="#48F4D2"/>
    </linearGradient>
    <filter id="shadow" x="0" y="0" width="512" height="512" filterUnits="userSpaceOnUse" color-interpolation-filters="sRGB">
      <feOffset dy="18"/>
      <feGaussianBlur stdDeviation="18"/>
      <feColorMatrix type="matrix" values="0 0 0 0 0 0 0 0 0 0.035 0 0 0 0 0.11 0 0 0 0.58 0"/>
      <feBlend in2="SourceGraphic" result="shape"/>
    </filter>
  </defs>

  <g filter="url(#shadow)">
    <rect x="18" y="14" width="476" height="476" rx="96" fill="url(#bg)"/>
    <rect x="18.5" y="14.5" width="475" height="475" rx="95.5" stroke="#254E8E"/>

    <g fill="url(#tile)">
      <rect x="108" y="108" width="70" height="54" rx="6"/>
      <rect x="180" y="108" width="70" height="54" rx="6"/>
      <rect x="108" y="164" width="70" height="54" rx="6"/>
      <rect x="180" y="164" width="70" height="54" rx="6"/>
      <rect x="108" y="220" width="70" height="54" rx="6"/>
      <rect x="180" y="220" width="70" height="54" rx="6"/>
      <rect x="108" y="276" width="70" height="54" rx="6"/>
      <rect x="180" y="276" width="70" height="54" rx="6"/>
      <rect x="108" y="332" width="70" height="54" rx="6"/>
      <rect x="180" y="332" width="70" height="54" rx="6"/>
    </g>

    <path d="M108 72H322C390.484 72 446 127.516 446 196C446 264.484 390.484 320 322 320H256V182H342C369.614 182 392 159.614 392 132C392 104.386 369.614 82 342 82H108V72Z" fill="url(#arch)"/>
    <path d="M108 390C155.5 352 208 325 267 301C323.5 277 365.5 253.5 392 226L399 238C369 265.5 327.5 294 272 320C227 341 184 363.5 120 390H108Z" fill="url(#ribbon)"/>
    <path d="M214 325C244 313 272 300 304 281C339 261 365 245.333 388 226" stroke="#BDF7E8" stroke-width="6" stroke-linecap="round"/>
    <circle cx="214" cy="325" r="9" fill="#EBFFF9"/>
    <circle cx="304" cy="271" r="9" fill="#EBFFF9"/>
    <circle cx="388" cy="226" r="9" fill="#EBFFF9"/>
  </g>
</svg>
